<?xml version="1.0" encoding="UTF-8"?>
<svg width="7px" height="9px" viewBox="0 0 7 9" version="1.1" xmlns="http://www.w3.org/2000/svg" xmlns:xlink="http://www.w3.org/1999/xlink">
    <!-- Generator: Sketch 50.2 (55047) - http://www.bohemiancoding.com/sketch -->
    <title>leaf</title>
    <desc>Created with Sketch.</desc>
    <defs></defs>
    <g id="Page-1" stroke="none" stroke-width="1" fill="none" fill-rule="evenodd">
        <g id="leaf" fill="#000000" fill-rule="nonzero">
            <path d="M5.701,0.465 C5.701,0.465 5.014,1.131 4.271,1.4 C-1.229,3.389 1.09,7.266 1.166,7.279 C1.166,7.279 1.474,6.742 1.891,6.436 C4.535,4.492 5.072,2.255 5.072,2.255 C5.072,2.255 4.479,4.947 2.127,6.622 C1.608,6.992 1.256,7.902 1.107,8.812 C1.107,8.812 1.475,8.663 1.634,8.623 C1.696,8.22 1.825,7.834 2.043,7.49 C5.33,7.881 6.407,5.232 6.548,4.309 C6.88,2.127 5.701,0.465 5.701,0.465 Z" id="Shape"></path>
        </g>
    </g>
</svg>