<?xml version="1.0" encoding="UTF-8"?>
<svg width="30px" height="30px" viewBox="0 0 30 30" version="1.1" xmlns="http://www.w3.org/2000/svg" xmlns:xlink="http://www.w3.org/1999/xlink">
    <!-- Generator: Sketch 50.2 (55047) - http://www.bohemiancoding.com/sketch -->
    <title>Group 2</title>
    <desc>Created with Sketch.</desc>
    <defs></defs>
    <g id="Page-1" stroke="none" stroke-width="1" fill="none" fill-rule="evenodd">
        <g id="volume" transform="translate(-361.000000, -154.000000)" fill-rule="nonzero">
            <g id="Nav" transform="translate(1.000000, 36.000000)">
                <g id="Group-2" transform="translate(360.000000, 118.000000)">
                    <path d="M28.232,27.022 C27.799,26.305 27.799,25.409 28.232,24.692 C31.296,19.711 29.742,13.188 24.761,10.125 C23.66,9.447 22.443,8.977 21.173,8.738 C20.764,6.518 19.655,4.487 18.01,2.942 C15.836,0.862 12.875,-0.184 9.877,0.069 C4.046,0.526 -0.309,5.622 0.147,11.453 C0.279,13.142 0.815,14.775 1.709,16.215 C2.142,16.932 2.142,17.828 1.709,18.545 L0.728,20.183 C0.529,20.518 0.64,20.952 0.975,21.15 C1.084,21.214 1.208,21.249 1.335,21.249 L8.846,21.249 C9.954,26.206 14.357,29.727 19.435,29.72 L28.584,29.72 C28.974,29.72 29.29,29.404 29.29,29.014 C29.29,28.888 29.256,28.763 29.191,28.654 L28.232,27.022 Z" id="Shape" fill="#0071BC"></path>
                    <path d="M19.464,28.307 C15.15,28.332 11.369,25.424 10.287,21.247 L10.456,21.247 C16.308,21.296 21.13,16.663 21.314,10.813 C21.314,10.608 21.314,10.404 21.314,10.199 C26.249,11.357 29.31,16.296 28.151,21.231 C27.926,22.19 27.548,23.105 27.032,23.944 C26.327,25.11 26.327,26.569 27.032,27.735 L27.371,28.307 L19.464,28.307 Z" id="Shape" fill="#038FDD" opacity="0.7"></path>
                    <path d="M11.508,8.957 C11.508,9.663 10.844,10.115 9.143,10.185 L9.072,10.256 L9.383,12.444 L10.795,12.444 L10.943,11.618 C12.383,11.364 13.548,10.658 13.548,8.928 C13.548,7.135 12.228,6.104 10.279,6.104 C9.015,6.074 7.803,6.609 6.975,7.565 L8.217,8.928 C8.733,8.348 9.467,8.01 10.243,7.996 C11.049,7.997 11.508,8.35 11.508,8.957 Z" id="Shape" fill="#0071BC"></path>
                    <rect id="Rectangle-path" fill="#0071BC" x="8.938" y="13.514" width="2.188" height="2.16"></rect>
                </g>
            </g>
        </g>
    </g>
</svg>