<?xml version="1.0" encoding="UTF-8"?>
<svg width="22px" height="23px" viewBox="0 0 22 23" version="1.1" xmlns="http://www.w3.org/2000/svg" xmlns:xlink="http://www.w3.org/1999/xlink">
    <!-- Generator: Sketch 50.2 (55047) - http://www.bohemiancoding.com/sketch -->
    <title>Group</title>
    <desc>Created with Sketch.</desc>
    <defs></defs>
    <g id="Page-1" stroke="none" stroke-width="1" fill="none" fill-rule="evenodd">
        <g id="volume" transform="translate(-1253.000000, -166.000000)" fill-rule="nonzero">
            <g id="Nav" transform="translate(1.000000, 36.000000)">
                <g id="Group" transform="translate(1252.000000, 130.000000)">
                    <path d="M6.5,21.259 C6.967,20.505 7.261,19.571 7.355,18.484 C7.402,17.941 7.218,17.4 6.85,16.999 C6.483,16.598 5.959,16.368 5.415,16.368 L1.778,16.368 L1.778,1.357 L20.663,1.355 L20.617,16.368 L12.518,16.368 C11.464,16.368 10.515,17.159 10.31,18.206 C9.949,20.066 8.248,20.901 6.5,21.259 Z" id="Shape" fill="#038FDD"></path>
                    <path d="M19.617,2.355 L19.617,15.368 L12.519,15.368 C10.995,15.368 9.624,16.506 9.33,18.015 C9.197,18.698 8.775,19.196 8.21,19.559 C8.275,19.242 8.322,18.913 8.352,18.57 C8.423,17.749 8.145,16.93 7.588,16.323 C7.031,15.716 6.24,15.368 5.416,15.368 L2.78,15.368 L2.78,2.355 L19.617,2.355 Z M20.664,0.355 L1.781,0.355 C1.228,0.355 0.779,0.804 0.779,1.357 L0.779,16.522 C0.779,16.989 1.158,17.368 1.625,17.368 L5.415,17.368 C5.971,17.368 6.406,17.843 6.358,18.397 C6.23,19.876 5.541,22.428 2.32,22.428 C2.284,22.431 2.893,22.508 3.811,22.508 C6.176,22.508 10.59,21.998 11.293,18.399 C11.403,17.835 11.944,17.369 12.519,17.369 L20.83,17.369 C21.265,17.369 21.617,17.017 21.617,16.582 L21.617,1.309 C21.617,0.781 21.191,0.355 20.664,0.355 Z" id="Shape" fill="#0071BC"></path>
                    <path d="M8.353,6.76 C8.353,6.413 8.465,6.063 8.687,5.707 C8.909,5.351 9.234,5.056 9.661,4.823 C10.088,4.589 10.586,4.473 11.155,4.473 C11.684,4.473 12.151,4.571 12.556,4.766 C12.961,4.961 13.274,5.226 13.495,5.562 C13.716,5.898 13.826,6.262 13.826,6.656 C13.826,6.966 13.763,7.237 13.638,7.471 C13.512,7.705 13.362,7.906 13.189,8.076 C13.016,8.246 12.705,8.531 12.256,8.932 C12.131,9.045 12.033,9.145 11.958,9.23 C11.883,9.316 11.827,9.395 11.791,9.465 C11.755,9.536 11.727,9.608 11.707,9.679 C11.686,9.75 11.656,9.875 11.616,10.053 C11.547,10.433 11.33,10.622 10.965,10.622 C10.775,10.622 10.616,10.56 10.487,10.436 C10.357,10.312 10.293,10.128 10.293,9.884 C10.293,9.577 10.34,9.312 10.435,9.088 C10.53,8.864 10.656,8.666 10.813,8.497 C10.97,8.327 11.181,8.126 11.448,7.892 C11.682,7.688 11.85,7.533 11.954,7.429 C12.058,7.325 12.146,7.21 12.217,7.082 C12.288,6.954 12.324,6.816 12.324,6.666 C12.324,6.374 12.216,6.127 11.998,5.927 C11.782,5.726 11.502,5.626 11.158,5.626 C10.757,5.626 10.461,5.727 10.272,5.93 C10.082,6.132 9.922,6.431 9.791,6.824 C9.666,7.236 9.431,7.442 9.085,7.442 C8.881,7.442 8.708,7.37 8.568,7.226 C8.423,7.084 8.353,6.927 8.353,6.76 Z M11.023,12.757 C10.801,12.757 10.606,12.685 10.441,12.541 C10.275,12.397 10.192,12.196 10.192,11.936 C10.192,11.706 10.272,11.513 10.432,11.356 C10.593,11.199 10.79,11.121 11.023,11.121 C11.253,11.121 11.446,11.199 11.604,11.356 C11.76,11.512 11.839,11.706 11.839,11.936 C11.839,12.191 11.756,12.392 11.592,12.538 C11.428,12.684 11.239,12.757 11.023,12.757 Z" id="Shape" fill="#0071BC"></path>
                </g>
            </g>
        </g>
    </g>
</svg>