<svg width="30" height="30" viewBox="0 0 30 30" xmlns="http://www.w3.org/2000/svg">
    <title>
        Group 2
    </title>
    <g fill-rule="nonzero" fill="none">
        <path d="M28.232 27.022a2.252 2.252 0 0 1 0-2.33c3.064-4.981 1.51-11.504-3.471-14.567a10.574 10.574 0 0 0-3.588-1.387 10.583 10.583 0 0 0-3.163-5.796A10.487 10.487 0 0 0 9.877.069C4.046.526-.309 5.622.147 11.453a10.594 10.594 0 0 0 1.562 4.762 2.252 2.252 0 0 1 0 2.33l-.981 1.638a.706.706 0 0 0 .607 1.066h7.511a10.835 10.835 0 0 0 10.589 8.471h9.149a.706.706 0 0 0 .607-1.066l-.959-1.632z" fill="#0071BC"/>
        <path d="M19.464 28.307a9.424 9.424 0 0 1-9.177-7.06h.169c5.852.049 10.674-4.584 10.858-10.434v-.614a9.176 9.176 0 0 1 5.718 13.745 3.662 3.662 0 0 0 0 3.791l.339.572h-7.907z" fill="#038FDD" opacity=".7"/>
        <path d="M11.508 8.957c0 .706-.664 1.158-2.365 1.228l-.071.071.311 2.188h1.412l.148-.826c1.44-.254 2.605-.96 2.605-2.69 0-1.793-1.32-2.824-3.269-2.824a4.237 4.237 0 0 0-3.304 1.461l1.242 1.363a2.778 2.778 0 0 1 2.026-.932c.806.001 1.265.354 1.265.961z" fill="#0071BC"/>
        <path fill="#0071BC" d="M8.938 13.514h2.188v2.16H8.938z"/>
    </g>
</svg>
