<?xml version="1.0" encoding="UTF-8"?><!DOCTYPE svg PUBLIC "-//W3C//DTD SVG 1.1//EN" "http://www.w3.org/Graphics/SVG/1.1/DTD/svg11.dtd"><svg xmlns="http://www.w3.org/2000/svg"><defs>
        <filter x="-.4%" y="-.1%" width="100.9%" height="100.3%" filterUnits="objectBoundingBox" id="a">
            <feOffset dy="2" in="SourceAlpha" result="shadowOffsetOuter1"/>
            <feGaussianBlur stdDeviation="2" in="shadowOffsetOuter1" result="shadowBlurOuter1"/>
            <feColorMatrix values="0 0 0 0 0 0 0 0 0 0 0 0 0 0 0 0 0 0 0.5 0" in="shadowBlurOuter1" result="shadowMatrixOuter1"/>
            <feMerge>
                <feMergeNode in="shadowMatrixOuter1"/>
                <feMergeNode in="SourceGraphic"/>
            </feMerge>
        </filter>
    
        <filter x="-.4%" y="-.1%" width="100.9%" height="100.3%" filterUnits="objectBoundingBox" id="a">
            <feOffset dy="2" in="SourceAlpha" result="shadowOffsetOuter1"/>
            <feGaussianBlur stdDeviation="2" in="shadowOffsetOuter1" result="shadowBlurOuter1"/>
            <feColorMatrix values="0 0 0 0 0 0 0 0 0 0 0 0 0 0 0 0 0 0 0.5 0" in="shadowBlurOuter1" result="shadowMatrixOuter1"/>
            <feMerge>
                <feMergeNode in="shadowMatrixOuter1"/>
                <feMergeNode in="SourceGraphic"/>
            </feMerge>
        </filter>
    
        <filter x="-.4%" y="-.1%" width="100.9%" height="100.3%" filterUnits="objectBoundingBox" id="a">
            <feOffset dy="2" in="SourceAlpha" result="shadowOffsetOuter1"/>
            <feGaussianBlur stdDeviation="2" in="shadowOffsetOuter1" result="shadowBlurOuter1"/>
            <feColorMatrix values="0 0 0 0 0 0 0 0 0 0 0 0 0 0 0 0 0 0 0.5 0" in="shadowBlurOuter1" result="shadowMatrixOuter1"/>
            <feMerge>
                <feMergeNode in="shadowMatrixOuter1"/>
                <feMergeNode in="SourceGraphic"/>
            </feMerge>
        </filter>
    
        <filter x="-.4%" y="-.1%" width="100.9%" height="100.3%" filterUnits="objectBoundingBox" id="a">
            <feOffset dy="2" in="SourceAlpha" result="shadowOffsetOuter1"/>
            <feGaussianBlur stdDeviation="2" in="shadowOffsetOuter1" result="shadowBlurOuter1"/>
            <feColorMatrix values="0 0 0 0 0 0 0 0 0 0 0 0 0 0 0 0 0 0 0.5 0" in="shadowBlurOuter1" result="shadowMatrixOuter1"/>
            <feMerge>
                <feMergeNode in="shadowMatrixOuter1"/>
                <feMergeNode in="SourceGraphic"/>
            </feMerge>
        </filter>
    
        <filter x="-.4%" y="-.1%" width="100.9%" height="100.3%" filterUnits="objectBoundingBox" id="a">
            <feOffset dy="2" in="SourceAlpha" result="shadowOffsetOuter1"/>
            <feGaussianBlur stdDeviation="2" in="shadowOffsetOuter1" result="shadowBlurOuter1"/>
            <feColorMatrix values="0 0 0 0 0 0 0 0 0 0 0 0 0 0 0 0 0 0 0.5 0" in="shadowBlurOuter1" result="shadowMatrixOuter1"/>
            <feMerge>
                <feMergeNode in="shadowMatrixOuter1"/>
                <feMergeNode in="SourceGraphic"/>
            </feMerge>
        </filter>
    </defs><symbol id="icon-arr-full" viewBox="0 0 24 18">
    <title>
        Group
    </title>
    
    <g filter="url(#a)" transform="translate(-1230 -4158)" fill-rule="evenodd">
        <path d="M1234.289 4164.674h14.816"/>
        <path d="M1244.525 4169.254l4.58-4.58-4.58-4.579"/>
    </g>
</symbol><symbol id="icon-arr-sm" viewBox="0 0 24 14">
    <title>
        Shape
    </title>
    
    <path d="M849.874 2986.127l-7.505 3.753-7.504-3.753" transform="translate(-830 -2983)" filter="url(#a)" stroke-width="2.126" fill-rule="evenodd"/>
</symbol><symbol id="icon-arr" viewBox="0 0 6 21">
    <title>
        arr
    </title>
    <path d="M.43.206l4.954 9.907L.43 20.02" stroke-width=".664" fill-rule="evenodd"/>
</symbol><symbol id="icon-band" viewBox="0 0 40 39">
    <title>
        Shape
    </title>
    
    <path d="M467.318 2643.332l9.524-8.592h-5.367l2.684-2.909-7.534-.416 6.425-3.741-6.425-5.182 7.067-.361-1.612-8.453 6.324 5.913 4.018-5.913 2.217 6.513 9.562-6.513-2.079 9.94 4.711 4.194-4.85 2.494 4.85 7.206-6.928-1.386-.277 4.989-5.82-4.712-.554 6.223-3.742-6.223z" transform="translate(-462 -2611)" filter="url(#a)" stroke-width="2" fill-rule="evenodd" stroke-linecap="round" stroke-linejoin="round"/>
</symbol><symbol id="icon-check" viewBox="0 0 22 18">
    <title>
        Shape
    </title>
    
    <path d="M798.064 4127.79l4.505 4.505 9.502-9.502" transform="translate(-794 -4121)" filter="url(#a)" fill-rule="evenodd"/>
</symbol><symbol id="icon-leaf" viewBox="0 0 15 15">
    <title>
        Shape
    </title>
    
    <path d="M543.701 2882.465s-.687.666-1.43.935c-5.5 1.989-3.181 5.866-3.105 5.879 0 0 .308-.537.725-.843 2.644-1.944 3.181-4.181 3.181-4.181s-.593 2.692-2.945 4.367c-.519.37-.871 1.28-1.02 2.19 0 0 .368-.149.527-.189.062-.403.191-.789.409-1.133 3.287.391 4.364-2.258 4.505-3.181.332-2.182-.847-3.844-.847-3.844z" transform="translate(-534 -2881)" filter="url(#a)" fill-rule="nonzero"/>
</symbol></svg>