<?xml version="1.0" encoding="UTF-8"?><!DOCTYPE svg PUBLIC "-//W3C//DTD SVG 1.1//EN" "http://www.w3.org/Graphics/SVG/1.1/DTD/svg11.dtd"><svg xmlns="http://www.w3.org/2000/svg"><symbol id="icon-arr-full" viewBox="0 0 32 32">
    <path clip-rule="evenodd" d="M32 16.009c0-.267-.11-.522-.293-.714l-9.899-9.999a.993.993 0 0 0-1.414 0 1.016 1.016 0 0 0 0 1.428l8.193 8.275H1c-.552 0-1 .452-1 1.01s.448 1.01 1 1.01h27.586l-8.192 8.275a1.017 1.017 0 0 0 0 1.428.994.994 0 0 0 1.414 0l9.899-9.999c.187-.189.29-.449.293-.714z" fill-rule="evenodd"/>
</symbol><symbol id="icon-arr-sm" viewBox="0 0 17 7">
    <title>
        arr-sm
    </title>
    <path d="M15.874 1.127L8.369 4.88.865 1.127" stroke-width="2.126" fill-rule="evenodd"/>
</symbol><symbol id="icon-arr" viewBox="0 0 6 21">
    <title>
        arr
    </title>
    <path d="M.43.206l4.954 9.907L.43 20.02" stroke-width=".664" fill-rule="evenodd"/>
</symbol><symbol id="icon-check" viewBox="0 0 32 32">
    <path clip-rule="evenodd" d="M27.704 8.397a1.016 1.016 0 0 0-1.428 0L11.988 22.59l-6.282-6.193a1.016 1.016 0 0 0-1.428 0 .994.994 0 0 0 0 1.414l6.999 6.899c.39.386 1.039.386 1.429 0L27.704 9.811a.992.992 0 0 0 0-1.414c-.394-.391.395.39 0 0z" fill-rule="evenodd"/>
</symbol><symbol id="icon-leaf" viewBox="0 0 7 9">
    <title>
        leaf
    </title>
    <path d="M5.701.465s-.687.666-1.43.935c-5.5 1.989-3.181 5.866-3.105 5.879 0 0 .308-.537.725-.843 2.644-1.944 3.181-4.181 3.181-4.181s-.593 2.692-2.945 4.367c-.519.37-.871 1.28-1.02 2.19 0 0 .368-.149.527-.189.062-.403.191-.789.409-1.133 3.287.391 4.364-2.258 4.505-3.181C6.88 2.127 5.701.465 5.701.465z" fill-rule="nonzero"/>
</symbol></svg>