<svg width="22" height="23" viewBox="0 0 22 23" xmlns="http://www.w3.org/2000/svg">
    <title>
        Group
    </title>
    <g fill-rule="nonzero" fill="none">
        <path d="M6.5 21.259c.467-.754.761-1.688.855-2.775a1.951 1.951 0 0 0-1.94-2.116H1.778V1.357l18.885-.002-.046 15.013h-8.099c-1.054 0-2.003.791-2.208 1.838-.361 1.86-2.062 2.695-3.81 3.053z" fill="#038FDD"/>
        <path d="M19.617 2.355v13.013h-7.098c-1.524 0-2.895 1.138-3.189 2.647-.133.683-.555 1.181-1.12 1.544.065-.317.112-.646.142-.989a2.954 2.954 0 0 0-.764-2.247 2.954 2.954 0 0 0-2.172-.955H2.78V2.355h16.837zm1.047-2H1.781C1.228.355.779.804.779 1.357v15.165c0 .467.379.846.846.846h3.79c.556 0 .991.475.943 1.029-.128 1.479-.817 4.031-4.038 4.031-.036.003.573.08 1.491.08 2.365 0 6.779-.51 7.482-4.109.11-.564.651-1.03 1.226-1.03h8.311a.787.787 0 0 0 .787-.787V1.309a.952.952 0 0 0-.953-.954z" fill="#0071BC"/>
        <path d="M8.353 6.76c0-.347.112-.697.334-1.053.222-.356.547-.651.974-.884.427-.234.925-.35 1.494-.35.529 0 .996.098 1.401.293.405.195.718.46.939.796.221.336.331.7.331 1.094 0 .31-.063.581-.188.815a2.506 2.506 0 0 1-.449.605c-.173.17-.484.455-.933.856a3.772 3.772 0 0 0-.298.298 1.224 1.224 0 0 0-.167.235 1.185 1.185 0 0 0-.084.214 6.904 6.904 0 0 0-.091.374c-.069.38-.286.569-.651.569a.663.663 0 0 1-.478-.186c-.13-.124-.194-.308-.194-.552 0-.307.047-.572.142-.796.095-.224.221-.422.378-.591.157-.17.368-.371.635-.605.234-.204.402-.359.506-.463.104-.104.192-.219.263-.347a.842.842 0 0 0 .107-.416.964.964 0 0 0-.326-.739c-.216-.201-.496-.301-.84-.301-.401 0-.697.101-.886.304-.19.202-.35.501-.481.894-.125.412-.36.618-.706.618a.694.694 0 0 1-.517-.216.643.643 0 0 1-.215-.466zm2.67 5.997a.859.859 0 0 1-.582-.216c-.166-.144-.249-.345-.249-.605a.814.814 0 0 1 .831-.815c.23 0 .423.078.581.235a.79.79 0 0 1 .235.58c0 .255-.083.456-.247.602a.829.829 0 0 1-.569.219z" fill="#0071BC"/>
    </g>
</svg>
